<svg width="87" height="15" viewBox="0 0 87 15" fill="none" xmlns="http://www.w3.org/2000/svg">
<g filter="url(#filter0_d_629_4473)">
<path d="M6.55308 0.00292969L8.02434 4.531H12.7854L8.93363 7.3295L10.4049 11.8576L6.55308 9.05906L2.70128 11.8576L4.17253 7.3295L0.320731 4.531H5.08182L6.55308 0.00292969Z" fill="#00C950"/>
<path d="M24.0296 0.00292969L25.5009 4.531H30.262L26.4102 7.3295L27.8814 11.8576L24.0296 9.05906L20.1778 11.8576L21.6491 7.3295L17.7973 4.531H22.5584L24.0296 0.00292969Z" fill="#00C950"/>
<path d="M41.5023 0.00292969L42.9736 4.531H47.7346L43.8828 7.3295L45.3541 11.8576L41.5023 9.05906L37.6505 11.8576L39.1218 7.3295L35.2699 4.531H40.031L41.5023 0.00292969Z" fill="#00C950"/>
<path d="M58.9789 0.00292969L60.4501 4.531H65.2112L61.3594 7.3295L62.8307 11.8576L58.9789 9.05906L55.1271 11.8576L56.5983 7.3295L52.7465 4.531H57.5076L58.9789 0.00292969Z" fill="#00C950"/>
<path d="M76.7367 0L78.2079 4.52807H82.969L79.1172 7.32657L80.5885 11.8546L76.7367 9.05614L72.8849 11.8546L74.3561 7.32657L70.5043 4.52807H75.2654L76.7367 0Z" fill="#00C950"/>
<mask id="mask0_629_4473" style="mask-type:alpha" maskUnits="userSpaceOnUse" x="70" y="0" width="13" height="12">
<path d="M76.7367 0L78.2079 4.52807H82.969L79.1172 7.32657L80.5885 11.8546L76.7367 9.05614L72.8849 11.8546L74.3561 7.32657L70.5043 4.52807H75.2654L76.7367 0Z" fill="#DEA453"/>
</mask>
<g mask="url(#mask0_629_4473)">
<rect x="79.1836" width="3.9" height="12" fill="#E1E1E1"/>
</g>
</g>
<defs>
<filter id="filter0_d_629_4473" x="-3.67969" y="0" width="90.6484" height="19.8574" filterUnits="userSpaceOnUse" color-interpolation-filters="sRGB">
<feFlood flood-opacity="0" result="BackgroundImageFix"/>
<feColorMatrix in="SourceAlpha" type="matrix" values="0 0 0 0 0 0 0 0 0 0 0 0 0 0 0 0 0 0 127 0" result="hardAlpha"/>
<feOffset dy="4"/>
<feGaussianBlur stdDeviation="2"/>
<feComposite in2="hardAlpha" operator="out"/>
<feColorMatrix type="matrix" values="0 0 0 0 0 0 0 0 0 0 0 0 0 0 0 0 0 0 0.25 0"/>
<feBlend mode="normal" in2="BackgroundImageFix" result="effect1_dropShadow_629_4473"/>
<feBlend mode="normal" in="SourceGraphic" in2="effect1_dropShadow_629_4473" result="shape"/>
</filter>
</defs>
</svg>
